<?xml version="1.0" encoding="utf-8"?>
<!-- Generator: Adobe Illustrator 16.0.4, SVG Export Plug-In . SVG Version: 6.00 Build 0)  -->
<!DOCTYPE svg PUBLIC "-//W3C//DTD SVG 1.1//EN" "http://www.w3.org/Graphics/SVG/1.1/DTD/svg11.dtd">
<svg version="1.1" id="Layer_1" xmlns="http://www.w3.org/2000/svg" xmlns:xlink="http://www.w3.org/1999/xlink" x="0px" y="0px"
	 viewBox="0 0 400 40" enable-background="new 0 0 253 16" height="24"
	 xml:space="preserve">
<path fill="#FFFFFF" d="M10.071,22.697c0,1.137,0.1,1.979,0.306,2.526c0.197,0.54,0.537,1.032,1.008,1.465H5.303
	c0.479-0.433,0.822-0.925,1.018-1.465c0.199-0.548,0.296-1.39,0.296-2.526V6.629H4.825c-1.23,0-2.23,0.096-2.992,0.288
	C1.067,7.112,0.454,7.423,0,7.854l1.098-3.695h15.834L15.894,7.79c-0.33-0.397-0.763-0.692-1.298-0.88
	c-0.541-0.189-1.216-0.281-2.032-0.281h-2.492V22.697L10.071,22.697z"/>
<path fill="#FFFFFF" d="M22.094,23.158c0,1.01,0.092,1.763,0.263,2.249c0.178,0.486,0.478,0.925,0.901,1.309h-5.424
	c0.413-0.384,0.711-0.822,0.892-1.309c0.179-0.486,0.271-1.239,0.271-2.249v-13.01c0-1.015-0.092-1.763-0.271-2.246
	c-0.181-0.482-0.479-0.912-0.892-1.288h5.424c-0.424,0.376-0.724,0.806-0.901,1.288c-0.171,0.483-0.263,1.231-0.263,2.246v4.501
	h10.654v-4.501c0-1.015-0.092-1.763-0.265-2.246c-0.176-0.482-0.476-0.912-0.902-1.288h5.427c-0.416,0.376-0.713,0.806-0.892,1.288
	c-0.179,0.483-0.271,1.231-0.271,2.246v13.01c0,1.01,0.087,1.763,0.263,2.249c0.175,0.486,0.478,0.925,0.899,1.309h-5.427
	c0.427-0.384,0.727-0.822,0.902-1.309c0.173-0.486,0.265-1.239,0.265-2.249v-6.191H22.094V23.158L22.094,23.158z"/>
<path fill="#FFFFFF" d="M39.641,26.716c0.417-0.384,0.713-0.822,0.892-1.309c0.182-0.486,0.271-1.24,0.271-2.252V10.16
	c0-1.017-0.089-1.768-0.271-2.253c-0.179-0.484-0.475-0.914-0.892-1.293h10.833v3.173c-0.48-0.392-1.017-0.673-1.594-0.849
	c-0.579-0.174-1.249-0.262-2.004-0.262c-0.392,0-0.829,0.029-1.312,0.095c-0.486,0.062-1.026,0.16-1.638,0.284v5.663h4.861v2.922
	c-0.233-0.271-0.542-0.465-0.931-0.575c-0.39-0.11-1.105-0.168-2.141-0.168h-1.79v7.207c0.752,0.113,1.431,0.197,2.039,0.256
	c0.608,0.06,1.132,0.088,1.578,0.088c1.008,0,1.957-0.137,2.849-0.41c0.892-0.272,1.773-0.694,2.636-1.255l-1.384,3.933H39.641
	L39.641,26.716z"/>
<path fill="#FFFFFF" d="M78.303,26.681v-1.697c-1.081,0.783-2.168,1.37-3.26,1.754c-1.098,0.384-2.214,0.581-3.335,0.581
	c-1.284,0-2.433-0.219-3.438-0.646c-1.006-0.43-1.876-1.073-2.605-1.938c-0.573-0.676-0.984-1.465-1.232-2.363
	s-0.373-2.107-0.373-3.623V8.201c0-1.13-0.103-1.967-0.292-2.503c-0.2-0.54-0.527-1.018-0.994-1.438H68.8
	c-0.462,0.421-0.795,0.898-0.987,1.438c-0.196,0.536-0.292,1.373-0.292,2.503v9.852c0,1.538,0.073,2.682,0.219,3.425
	c0.146,0.74,0.4,1.337,0.749,1.775c0.422,0.527,0.983,0.923,1.692,1.189c0.699,0.262,1.537,0.394,2.516,0.394
	c0.801,0,1.571-0.12,2.269-0.366c0.699-0.238,1.313-0.592,1.84-1.056c0.471-0.387,0.801-0.891,1.006-1.51
	c0.197-0.619,0.3-1.461,0.3-2.527V8.201c0-1.175-0.097-2.021-0.289-2.545c-0.194-0.521-0.524-0.986-0.994-1.396h6.076
	c-0.474,0.41-0.806,0.898-1.009,1.471c-0.2,0.57-0.3,1.394-0.3,2.471v14.517c0,1.13,0.1,1.964,0.3,2.506
	c0.203,0.543,0.535,1.027,1.009,1.457H78.303L78.303,26.681z"/>
<path fill="#FFFFFF" d="M104.953,6.614c-0.43,0.376-0.729,0.806-0.902,1.288c-0.176,0.482-0.263,1.229-0.263,2.243v17.038
	c-0.689-0.021-1.349-0.246-1.971-0.682c-0.618-0.435-1.397-1.263-2.335-2.477L89.26,10.94v12.215c0,1.053,0.087,1.814,0.26,2.29
	c0.167,0.47,0.465,0.897,0.884,1.271h-4.495c0.419-0.384,0.719-0.822,0.895-1.309c0.182-0.486,0.271-1.239,0.271-2.252v-13.01
	c0-1.014-0.089-1.761-0.271-2.243c-0.176-0.482-0.476-0.912-0.895-1.288h4.022l11.714,15.096V10.146
	c0-1.014-0.092-1.761-0.268-2.243c-0.181-0.482-0.479-0.912-0.895-1.288H104.953L104.953,6.614z"/>
<path fill="#FFFFFF" d="M112.456,23.155c0,1.013,0.086,1.766,0.263,2.252c0.176,0.486,0.473,0.925,0.899,1.309h-5.427
	c0.427-0.384,0.725-0.822,0.902-1.309c0.173-0.486,0.26-1.239,0.26-2.252v-13.01c0-1.014-0.087-1.761-0.26-2.243
	c-0.178-0.482-0.476-0.912-0.902-1.288h5.427c-0.427,0.376-0.724,0.806-0.899,1.288c-0.177,0.482-0.263,1.229-0.263,2.243V23.155
	L112.456,23.155z"/>
<path fill="#FFFFFF" d="M125.111,27.227c-0.844-0.222-1.568-0.706-2.163-1.457c-0.6-0.746-1.151-1.863-1.656-3.349l-4.009-11.709
	c-0.324-0.968-0.632-1.754-0.919-2.361c-0.286-0.607-0.616-1.188-0.973-1.736l4.092,0.014c0.019,0.328,0.049,0.634,0.103,0.912
	c0.044,0.279,0.104,0.546,0.182,0.797l4.819,14.385l4.56-11.981c0.133-0.368,0.24-0.738,0.321-1.109
	c0.079-0.368,0.122-0.711,0.122-1.021c0-0.268-0.081-0.556-0.229-0.859c-0.154-0.304-0.405-0.685-0.769-1.137h4.539L125.111,27.227
	L125.111,27.227z"/>
<path fill="#FFFFFF" d="M134.512,26.716c0.416-0.384,0.719-0.822,0.895-1.309c0.181-0.486,0.273-1.24,0.273-2.252V10.16
	c0-1.017-0.093-1.768-0.273-2.253c-0.176-0.484-0.479-0.914-0.895-1.293h10.833v3.173c-0.481-0.392-1.011-0.673-1.592-0.849
	c-0.581-0.174-1.246-0.262-2.009-0.262c-0.387,0-0.824,0.029-1.303,0.095c-0.489,0.062-1.035,0.16-1.641,0.284v5.663h4.857v2.922
	c-0.227-0.271-0.541-0.465-0.93-0.575c-0.39-0.11-1.103-0.168-2.141-0.168h-1.787v7.207c0.755,0.113,1.431,0.197,2.038,0.256
	c0.608,0.06,1.133,0.088,1.582,0.088c1.002,0,1.951-0.137,2.843-0.41c0.893-0.272,1.773-0.694,2.638-1.255l-1.384,3.933H134.512
	L134.512,26.716z"/>
<path fill="#FFFFFF" d="M153.54,23.158c0,1.01,0.087,1.763,0.265,2.249c0.173,0.486,0.473,0.925,0.897,1.309h-5.428
	c0.417-0.384,0.714-0.822,0.895-1.309c0.182-0.486,0.268-1.239,0.268-2.249V10.152c0-1.014-0.086-1.764-0.268-2.247
	c-0.181-0.484-0.478-0.914-0.895-1.291h6.854c1.952,0,3.53,0.473,4.73,1.418c1.2,0.948,1.805,2.179,1.805,3.692
	c0,1.101-0.361,2.072-1.086,2.909c-0.725,0.842-1.843,1.58-3.362,2.218l5.145,6.958c0.299,0.414,0.67,0.856,1.095,1.316
	c0.427,0.465,0.92,0.946,1.464,1.446l-1.535,0.144h-0.242c-0.719,0-1.423-0.189-2.109-0.578c-0.684-0.385-1.262-0.917-1.735-1.59
	l-5.892-8.251c1.757-0.398,3.032-0.942,3.849-1.632c0.811-0.691,1.214-1.579,1.214-2.674c0-1.013-0.344-1.839-1.044-2.476
	c-0.694-0.639-1.607-0.956-2.735-0.956c-0.257,0-0.564,0.021-0.927,0.063c-0.359,0.045-0.768,0.11-1.222,0.196V23.158L153.54,23.158
	z"/>
<path fill="#FFFFFF" d="M166.883,26.268l-0.941-3.649c1.146,0.781,2.266,1.363,3.34,1.742c1.088,0.382,2.16,0.574,3.224,0.574
	c1.356,0,2.445-0.296,3.274-0.891c0.821-0.594,1.235-1.364,1.235-2.309c0-0.271-0.042-0.542-0.129-0.812
	c-0.084-0.27-0.202-0.525-0.371-0.765c-0.355-0.551-1.566-1.339-3.628-2.361c-0.519-0.251-0.924-0.449-1.21-0.593
	c-1.925-0.985-3.249-1.895-3.962-2.723c-0.719-0.829-1.077-1.816-1.077-2.955c0-1.632,0.66-2.929,1.97-3.888
	c1.307-0.961,3.106-1.441,5.387-1.441c0.655,0,1.374,0.043,2.165,0.132c0.788,0.085,1.644,0.22,2.567,0.404v3.379
	c-0.817-0.633-1.638-1.101-2.466-1.411c-0.828-0.31-1.686-0.465-2.577-0.465c-1.13,0-2.04,0.244-2.731,0.739
	c-0.687,0.49-1.033,1.135-1.033,1.926c0,0.706,0.275,1.331,0.818,1.871c0.534,0.54,1.747,1.266,3.633,2.174
	c0.106,0.049,0.27,0.124,0.489,0.231c1.591,0.741,2.782,1.431,3.575,2.055c0.584,0.463,1.044,1.028,1.369,1.692
	c0.334,0.666,0.492,1.376,0.492,2.131c0,1.728-0.776,3.19-2.335,4.395c-1.558,1.2-3.5,1.801-5.837,1.801
	c-0.752,0-1.555-0.084-2.42-0.246C168.834,26.84,167.897,26.594,166.883,26.268L166.883,26.268z"/>
<path fill="#FFFFFF" d="M187.25,23.155c0,1.013,0.089,1.766,0.267,2.252c0.176,0.486,0.475,0.925,0.902,1.309h-5.434
	c0.427-0.384,0.73-0.822,0.904-1.309c0.175-0.486,0.265-1.239,0.265-2.252v-13.01c0-1.014-0.09-1.761-0.265-2.243
	c-0.174-0.482-0.478-0.912-0.904-1.288h5.434c-0.428,0.376-0.727,0.806-0.902,1.288c-0.178,0.482-0.267,1.229-0.267,2.243V23.155
	L187.25,23.155z"/>
<path fill="#FFFFFF" d="M279.089,7.189l-3.279,8.368h6.487L279.089,7.189L279.089,7.189z M279.467,0l1.789,4.361l6.801,17.035
	c0.751,1.89,1.338,3.752,3.2,4.702v0.104h-6.703v-0.104c1.605-0.724,1.341-1.086,0.462-3.405l-1.765-4.682h-8.298l-1.697,4.682
	c-0.689,1.857-0.916,2.814,0.65,3.405v0.104h-6.013v-0.104c1.891-0.95,2.453-2.812,3.167-4.702l8.406-21.262V0L279.467,0z"/>
<path fill="#FFFFFF" d="M237.469,7.778c-2.199,0-4.021,0.768-5.449,2.301c-1.432,1.535-2.145,3.494-2.145,5.879
	c0,2.462,0.708,4.502,2.124,6.13c1.413,1.628,3.182,2.438,5.303,2.438c2.192,0,4.006-0.768,5.438-2.309
	c1.425-1.538,2.136-3.503,2.136-5.898c0-2.465-0.702-4.5-2.119-6.113C241.34,8.584,239.578,7.778,237.469,7.778L237.469,7.778z
	 M237.361,26.688c-1.515,0-2.936-0.243-4.271-0.735c-1.333-0.489-2.481-1.189-3.439-2.103c-1.011-0.962-1.786-2.103-2.335-3.409
	c-0.546-1.311-0.814-2.684-0.814-4.122c0-1.13,0.173-2.225,0.519-3.286c0.349-1.06,0.854-2.055,1.519-2.974
	c1.032-1.416,2.314-2.505,3.838-3.265c1.524-0.768,3.189-1.146,4.984-1.146c1.538,0,2.979,0.244,4.311,0.732
	c1.338,0.484,2.481,1.188,3.441,2.105c1.026,0.968,1.808,2.106,2.352,3.425c0.544,1.316,0.812,2.738,0.812,4.263
	c0,1.4-0.305,2.771-0.91,4.116c-0.61,1.344-1.464,2.528-2.567,3.561c-0.987,0.936-2.117,1.638-3.379,2.119
	C240.156,26.448,238.805,26.688,237.361,26.688L237.361,26.688z"/>
<path fill="#FFFFFF" d="M254.195,22.656c0,1.016,0.083,1.762,0.259,2.248c0.179,0.481,0.48,0.919,0.909,1.3h-5.431
	c0.418-0.381,0.716-0.818,0.895-1.3c0.179-0.486,0.271-1.232,0.271-2.248V9.66c0-1.017-0.093-1.768-0.271-2.255
	c-0.179-0.48-0.477-0.913-0.895-1.292h10.847v3.174c-0.482-0.395-1.011-0.676-1.59-0.854c-0.578-0.173-1.252-0.259-2.016-0.259
	c-0.396,0-0.829,0.031-1.317,0.095c-0.486,0.062-1.029,0.159-1.638,0.288v5.66h4.876v2.919c-0.229-0.271-0.54-0.465-0.933-0.572
	c-0.392-0.114-1.113-0.168-2.156-0.168h-1.811V22.656L254.195,22.656z"/>
<path fill="#FFFFFF" d="M296.974,22.661c0,1.011,0.089,1.76,0.265,2.243c0.176,0.481,0.476,0.919,0.9,1.3h-5.428
	c0.416-0.381,0.716-0.818,0.895-1.3c0.181-0.483,0.271-1.232,0.271-2.243V9.649c0-1.017-0.09-1.763-0.271-2.249
	c-0.179-0.481-0.479-0.914-0.895-1.287h6.852c1.954,0,3.53,0.471,4.735,1.416c1.197,0.946,1.798,2.18,1.798,3.692
	c0,1.101-0.356,2.071-1.081,2.911c-0.722,0.841-1.844,1.576-3.363,2.214l5.142,6.963c0.306,0.417,0.668,0.854,1.1,1.313
	c0.428,0.46,0.911,0.941,1.465,1.438l-1.537,0.143h-0.244c-0.721,0-1.421-0.188-2.105-0.575c-0.686-0.381-1.265-0.911-1.737-1.578
	l-5.893-8.258c1.751-0.397,3.035-0.938,3.846-1.63c0.809-0.692,1.217-1.582,1.217-2.671c0-1.017-0.349-1.843-1.046-2.479
	c-0.691-0.635-1.605-0.959-2.735-0.959c-0.257,0-0.567,0.026-0.925,0.069c-0.359,0.041-0.767,0.108-1.224,0.195V22.661
	L296.974,22.661z"/>
<path fill="#FFFFFF" d="M315.317,22.656c0,1.016,0.084,1.765,0.26,2.248c0.173,0.481,0.476,0.919,0.903,1.3h-5.428
	c0.422-0.381,0.722-0.818,0.897-1.3c0.176-0.483,0.265-1.232,0.265-2.248V9.644c0-1.017-0.089-1.76-0.265-2.243
	c-0.176-0.481-0.476-0.914-0.897-1.287h5.428c-0.428,0.373-0.73,0.806-0.903,1.287c-0.176,0.483-0.26,1.227-0.26,2.243V22.656
	L315.317,22.656z"/>
<path fill="#FFFFFF" d="M335.397,22.445l-1.44,3.759h-15.439l10.536-17.506c-0.783-0.2-1.529-0.353-2.228-0.449
	c-0.699-0.098-1.346-0.146-1.945-0.146c-0.874,0-1.72,0.107-2.53,0.329c-0.811,0.217-1.638,0.562-2.484,1.038l1.365-3.357h12.839
	l-10.528,17.5c1.168,0.135,2.149,0.231,2.952,0.291c0.792,0.06,1.483,0.093,2.065,0.093c1.364,0,2.618-0.13,3.746-0.39
	C333.433,23.348,334.462,22.962,335.397,22.445L335.397,22.445z"/>
<path fill="#FFFFFF" d="M346.909,7.778c-2.206,0-4.027,0.768-5.454,2.301c-1.428,1.535-2.146,3.494-2.146,5.879
	c0,2.462,0.713,4.502,2.127,6.13s3.182,2.438,5.301,2.438c2.194,0,4.006-0.768,5.438-2.309c1.428-1.538,2.142-3.503,2.142-5.898
	c0-2.465-0.706-4.5-2.119-6.113C350.779,8.584,349.018,7.778,346.909,7.778L346.909,7.778z M346.801,26.688
	c-1.517,0-2.935-0.243-4.271-0.735c-1.338-0.489-2.483-1.189-3.443-2.103c-1.006-0.962-1.784-2.103-2.33-3.409
	c-0.546-1.311-0.816-2.684-0.816-4.122c0-1.13,0.168-2.225,0.52-3.286c0.341-1.06,0.849-2.055,1.514-2.974
	c1.038-1.416,2.324-2.505,3.843-3.265c1.525-0.768,3.187-1.146,4.984-1.146c1.541,0,2.974,0.244,4.309,0.732
	c1.335,0.484,2.481,1.188,3.443,2.105c1.027,0.968,1.806,2.106,2.352,3.425c0.541,1.316,0.811,2.738,0.811,4.263
	c0,1.4-0.303,2.771-0.913,4.116c-0.605,1.344-1.465,2.528-2.562,3.561c-0.989,0.936-2.116,1.638-3.378,2.119
	C349.596,26.448,348.238,26.688,346.801,26.688L346.801,26.688z"/>
<path fill="#FFFFFF" d="M378.365,6.113c-0.43,0.373-0.729,0.806-0.901,1.287c-0.179,0.483-0.263,1.227-0.263,2.243v17.023
	c-0.694-0.021-1.35-0.246-1.972-0.676c-0.62-0.433-1.397-1.254-2.335-2.465l-10.22-13.088v12.218c0,1.054,0.087,1.816,0.257,2.283
	c0.168,0.468,0.462,0.893,0.881,1.265h-4.489c0.414-0.381,0.711-0.818,0.893-1.3c0.181-0.483,0.272-1.232,0.272-2.248V9.644
	c0-1.017-0.092-1.76-0.272-2.243c-0.182-0.481-0.479-0.914-0.893-1.287h4.014l11.724,15.096V9.644c0-1.017-0.096-1.76-0.274-2.243
	c-0.18-0.481-0.477-0.914-0.895-1.287H378.365L378.365,6.113z"/>
<path fill="#FFFFFF" d="M385.67,16.671h5.837l-2.799-7.768L385.67,16.671L385.67,16.671z M382.994,23.497
	c-0.093,0.202-0.158,0.413-0.198,0.629c-0.041,0.217-0.059,0.438-0.059,0.668c0,0.191,0.061,0.405,0.199,0.633
	c0.144,0.229,0.361,0.488,0.668,0.777h-4.676c0.385-0.267,0.736-0.635,1.045-1.105c0.31-0.473,0.626-1.113,0.95-1.935l5.571-14.348
	c0.113-0.271,0.2-0.535,0.257-0.795c0.057-0.259,0.084-0.492,0.084-0.691c0-0.235-0.054-0.449-0.158-0.639
	c-0.11-0.193-0.293-0.386-0.538-0.578h4.505l6.302,16.849c0.292,0.762,0.61,1.381,0.948,1.856c0.343,0.473,0.774,0.938,1.306,1.386
	h-5.679l0.071-0.072c0.526-0.557,0.785-0.963,0.785-1.222c0-0.308-0.113-0.757-0.34-1.357c-0.033-0.097-0.055-0.167-0.072-0.216
	l-1.697-4.649h-7.384L382.994,23.497L382.994,23.497z"/>
<path fill="#FFFFFF" d="M206.503,6.584l5.155,8.762l3.464-5.705c0.211-0.35,0.373-0.664,0.482-0.95
	c0.104-0.285,0.16-0.529,0.16-0.734c0-0.23-0.066-0.458-0.205-0.684c-0.141-0.229-0.346-0.458-0.638-0.688h4.636l-6.801,11.065
	v5.488c0,1.014,0.089,1.767,0.268,2.254c0.186,0.491,0.481,0.924,0.897,1.308h-5.46c0.429-0.384,0.73-0.816,0.902-1.308
	c0.174-0.487,0.267-1.24,0.267-2.254l0.006-5.547l-4.658-7.668c-0.468-0.687-0.814-0.791-1.266-0.953
	c-0.479-0.169-1.287-0.186-2.024-0.186h-2.222V23.14c0,1.012,0.087,1.765,0.271,2.252c0.183,0.491,0.476,0.924,0.898,1.308h-5.434
	c0.423-0.384,0.724-0.816,0.902-1.308c0.17-0.487,0.257-1.24,0.257-2.252V8.784h-1.589c-1.104,0-1.998,0.086-2.679,0.262
	c-0.686,0.173-1.231,0.454-1.644,0.839l0.987-3.301H206.503L206.503,6.584z"/>
</svg>
